<svg id="visual" viewBox="0 0 1920 1080" width="1920" height="1080" xmlns="http://www.w3.org/2000/svg" xmlns:xlink="http://www.w3.org/1999/xlink" version="1.1"><rect x="0" y="0" width="1920" height="1080" fill="#001122"></rect><path d="M0 532L29.2 510C58.3 488 116.7 444 174.8 434.8C233 425.7 291 451.3 349.2 444.5C407.3 437.7 465.7 398.3 523.8 395.7C582 393 640 427 698.2 419.5C756.3 412 814.7 363 872.8 353.3C931 343.7 989 373.3 1047.2 384.3C1105.3 395.3 1163.7 387.7 1221.8 399.3C1280 411 1338 442 1396.2 436.7C1454.3 431.3 1512.7 389.7 1570.8 364C1629 338.3 1687 328.7 1745.2 360.2C1803.3 391.7 1861.7 464.3 1890.8 500.7L1920 537L1920 1081L1890.8 1081C1861.7 1081 1803.3 1081 1745.2 1081C1687 1081 1629 1081 1570.8 1081C1512.7 1081 1454.3 1081 1396.2 1081C1338 1081 1280 1081 1221.8 1081C1163.7 1081 1105.3 1081 1047.2 1081C989 1081 931 1081 872.8 1081C814.7 1081 756.3 1081 698.2 1081C640 1081 582 1081 523.8 1081C465.7 1081 407.3 1081 349.2 1081C291 1081 233 1081 174.8 1081C116.7 1081 58.3 1081 29.2 1081L0 1081Z" fill="#001d64"></path><path d="M0 444L29.2 456.8C58.3 469.7 116.7 495.3 174.8 516.7C233 538 291 555 349.2 566.8C407.3 578.7 465.7 585.3 523.8 573.7C582 562 640 532 698.2 512C756.3 492 814.7 482 872.8 484C931 486 989 500 1047.2 511.5C1105.3 523 1163.7 532 1221.8 556.2C1280 580.3 1338 619.7 1396.2 622.7C1454.3 625.7 1512.7 592.3 1570.8 577.3C1629 562.3 1687 565.7 1745.2 550.2C1803.3 534.7 1861.7 500.3 1890.8 483.2L1920 466L1920 1081L1890.8 1081C1861.7 1081 1803.3 1081 1745.2 1081C1687 1081 1629 1081 1570.8 1081C1512.7 1081 1454.3 1081 1396.2 1081C1338 1081 1280 1081 1221.8 1081C1163.7 1081 1105.3 1081 1047.2 1081C989 1081 931 1081 872.8 1081C814.7 1081 756.3 1081 698.2 1081C640 1081 582 1081 523.8 1081C465.7 1081 407.3 1081 349.2 1081C291 1081 233 1081 174.8 1081C116.7 1081 58.3 1081 29.2 1081L0 1081Z" fill="#001d58"></path><path d="M0 672L29.2 684.2C58.3 696.3 116.7 720.7 174.8 716.3C233 712 291 679 349.2 669.8C407.3 660.7 465.7 675.3 523.8 672.5C582 669.7 640 649.3 698.2 632.5C756.3 615.7 814.7 602.3 872.8 610.8C931 619.3 989 649.7 1047.2 671.7C1105.3 693.7 1163.7 707.3 1221.8 696.2C1280 685 1338 649 1396.2 644.3C1454.3 639.7 1512.7 666.3 1570.8 676C1629 685.7 1687 678.3 1745.2 683.5C1803.3 688.7 1861.7 706.3 1890.8 715.2L1920 724L1920 1081L1890.8 1081C1861.7 1081 1803.3 1081 1745.2 1081C1687 1081 1629 1081 1570.8 1081C1512.7 1081 1454.3 1081 1396.2 1081C1338 1081 1280 1081 1221.8 1081C1163.7 1081 1105.3 1081 1047.2 1081C989 1081 931 1081 872.8 1081C814.7 1081 756.3 1081 698.2 1081C640 1081 582 1081 523.8 1081C465.7 1081 407.3 1081 349.2 1081C291 1081 233 1081 174.8 1081C116.7 1081 58.3 1081 29.2 1081L0 1081Z" fill="#001c4b"></path><path d="M0 734L29.2 732C58.3 730 116.7 726 174.8 723.7C233 721.3 291 720.7 349.2 739.3C407.3 758 465.7 796 523.8 811.8C582 827.7 640 821.3 698.2 801.7C756.3 782 814.7 749 872.8 756.8C931 764.7 989 813.3 1047.2 839C1105.3 864.7 1163.7 867.3 1221.8 843.8C1280 820.3 1338 770.7 1396.2 753.7C1454.3 736.7 1512.7 752.3 1570.8 778.2C1629 804 1687 840 1745.2 835.7C1803.3 831.3 1861.7 786.7 1890.8 764.3L1920 742L1920 1081L1890.8 1081C1861.7 1081 1803.3 1081 1745.2 1081C1687 1081 1629 1081 1570.8 1081C1512.7 1081 1454.3 1081 1396.2 1081C1338 1081 1280 1081 1221.8 1081C1163.7 1081 1105.3 1081 1047.2 1081C989 1081 931 1081 872.8 1081C814.7 1081 756.3 1081 698.2 1081C640 1081 582 1081 523.8 1081C465.7 1081 407.3 1081 349.2 1081C291 1081 233 1081 174.8 1081C116.7 1081 58.3 1081 29.2 1081L0 1081Z" fill="#001a3e"></path><path d="M0 980L29.2 979.5C58.3 979 116.7 978 174.8 967.2C233 956.3 291 935.7 349.2 922.3C407.3 909 465.7 903 523.8 897C582 891 640 885 698.2 877.8C756.3 870.7 814.7 862.3 872.8 876.2C931 890 989 926 1047.2 944.5C1105.3 963 1163.7 964 1221.8 965.3C1280 966.7 1338 968.3 1396.2 970.7C1454.3 973 1512.7 976 1570.8 960.3C1629 944.7 1687 910.3 1745.2 902.3C1803.3 894.3 1861.7 912.7 1890.8 921.8L1920 931L1920 1081L1890.8 1081C1861.7 1081 1803.3 1081 1745.2 1081C1687 1081 1629 1081 1570.8 1081C1512.7 1081 1454.3 1081 1396.2 1081C1338 1081 1280 1081 1221.8 1081C1163.7 1081 1105.3 1081 1047.2 1081C989 1081 931 1081 872.8 1081C814.7 1081 756.3 1081 698.2 1081C640 1081 582 1081 523.8 1081C465.7 1081 407.3 1081 349.2 1081C291 1081 233 1081 174.8 1081C116.7 1081 58.3 1081 29.2 1081L0 1081Z" fill="#031730"></path></svg>