<svg id="visual" viewBox="0 0 1920 1080" width="1920" height="1080" xmlns="http://www.w3.org/2000/svg" xmlns:xlink="http://www.w3.org/1999/xlink" version="1.1"><rect x="0" y="0" width="1920" height="1080" fill="#001122"></rect><path d="M0 490L45.7 489.7C91.3 489.3 182.7 488.7 274.2 473.2C365.7 457.7 457.3 427.3 548.8 407.7C640.3 388 731.7 379 823 410.2C914.3 441.3 1005.7 512.7 1097 498.3C1188.3 484 1279.7 384 1371.2 372.5C1462.7 361 1554.3 438 1645.8 474C1737.3 510 1828.7 505 1874.3 502.5L1920 500L1920 1081L1874.3 1081C1828.7 1081 1737.3 1081 1645.8 1081C1554.3 1081 1462.7 1081 1371.2 1081C1279.7 1081 1188.3 1081 1097 1081C1005.7 1081 914.3 1081 823 1081C731.7 1081 640.3 1081 548.8 1081C457.3 1081 365.7 1081 274.2 1081C182.7 1081 91.3 1081 45.7 1081L0 1081Z" fill="#001d64"></path><path d="M0 541L45.7 539C91.3 537 182.7 533 274.2 534.8C365.7 536.7 457.3 544.3 548.8 558.8C640.3 573.3 731.7 594.7 823 600.7C914.3 606.7 1005.7 597.3 1097 589.8C1188.3 582.3 1279.7 576.7 1371.2 570.2C1462.7 563.7 1554.3 556.3 1645.8 567.5C1737.3 578.7 1828.7 608.3 1874.3 623.2L1920 638L1920 1081L1874.3 1081C1828.7 1081 1737.3 1081 1645.8 1081C1554.3 1081 1462.7 1081 1371.2 1081C1279.7 1081 1188.3 1081 1097 1081C1005.7 1081 914.3 1081 823 1081C731.7 1081 640.3 1081 548.8 1081C457.3 1081 365.7 1081 274.2 1081C182.7 1081 91.3 1081 45.7 1081L0 1081Z" fill="#001d58"></path><path d="M0 738L45.7 743C91.3 748 182.7 758 274.2 736C365.7 714 457.3 660 548.8 651.3C640.3 642.7 731.7 679.3 823 703.2C914.3 727 1005.7 738 1097 746.5C1188.3 755 1279.7 761 1371.2 744.3C1462.7 727.7 1554.3 688.3 1645.8 667C1737.3 645.7 1828.7 642.3 1874.3 640.7L1920 639L1920 1081L1874.3 1081C1828.7 1081 1737.3 1081 1645.8 1081C1554.3 1081 1462.7 1081 1371.2 1081C1279.7 1081 1188.3 1081 1097 1081C1005.7 1081 914.3 1081 823 1081C731.7 1081 640.3 1081 548.8 1081C457.3 1081 365.7 1081 274.2 1081C182.7 1081 91.3 1081 45.7 1081L0 1081Z" fill="#001c4b"></path><path d="M0 836L45.7 820.3C91.3 804.7 182.7 773.3 274.2 766.8C365.7 760.3 457.3 778.7 548.8 781C640.3 783.3 731.7 769.7 823 757.2C914.3 744.7 1005.7 733.3 1097 736.5C1188.3 739.7 1279.7 757.3 1371.2 785.8C1462.7 814.3 1554.3 853.7 1645.8 867.2C1737.3 880.7 1828.7 868.3 1874.3 862.2L1920 856L1920 1081L1874.3 1081C1828.7 1081 1737.3 1081 1645.8 1081C1554.3 1081 1462.7 1081 1371.2 1081C1279.7 1081 1188.3 1081 1097 1081C1005.7 1081 914.3 1081 823 1081C731.7 1081 640.3 1081 548.8 1081C457.3 1081 365.7 1081 274.2 1081C182.7 1081 91.3 1081 45.7 1081L0 1081Z" fill="#001a3e"></path><path d="M0 850L45.7 854.5C91.3 859 182.7 868 274.2 877.2C365.7 886.3 457.3 895.7 548.8 896.2C640.3 896.7 731.7 888.3 823 898.5C914.3 908.7 1005.7 937.3 1097 932C1188.3 926.7 1279.7 887.3 1371.2 872.8C1462.7 858.3 1554.3 868.7 1645.8 880C1737.3 891.3 1828.7 903.7 1874.3 909.8L1920 916L1920 1081L1874.3 1081C1828.7 1081 1737.3 1081 1645.8 1081C1554.3 1081 1462.7 1081 1371.2 1081C1279.7 1081 1188.3 1081 1097 1081C1005.7 1081 914.3 1081 823 1081C731.7 1081 640.3 1081 548.8 1081C457.3 1081 365.7 1081 274.2 1081C182.7 1081 91.3 1081 45.7 1081L0 1081Z" fill="#031730"></path></svg>