<svg id="visual" viewBox="0 0 1920 1080" width="1920" height="1080" xmlns="http://www.w3.org/2000/svg" xmlns:xlink="http://www.w3.org/1999/xlink" version="1.1"><rect x="0" y="0" width="1920" height="1080" fill="#001122"></rect><path d="M0 469L45.7 484.7C91.3 500.3 182.7 531.7 274.2 506.3C365.7 481 457.3 399 548.8 374.7C640.3 350.3 731.7 383.7 823 380.5C914.3 377.3 1005.7 337.7 1097 322.7C1188.3 307.7 1279.7 317.3 1371.2 360.5C1462.7 403.7 1554.3 480.3 1645.8 485.7C1737.3 491 1828.7 425 1874.3 392L1920 359L1920 1081L1874.3 1081C1828.7 1081 1737.3 1081 1645.8 1081C1554.3 1081 1462.7 1081 1371.2 1081C1279.7 1081 1188.3 1081 1097 1081C1005.7 1081 914.3 1081 823 1081C731.7 1081 640.3 1081 548.8 1081C457.3 1081 365.7 1081 274.2 1081C182.7 1081 91.3 1081 45.7 1081L0 1081Z" fill="#001d64"></path><path d="M0 671L45.7 665.8C91.3 660.7 182.7 650.3 274.2 645.5C365.7 640.7 457.3 641.3 548.8 645.2C640.3 649 731.7 656 823 632C914.3 608 1005.7 553 1097 517.5C1188.3 482 1279.7 466 1371.2 497.2C1462.7 528.3 1554.3 606.7 1645.8 632.8C1737.3 659 1828.7 633 1874.3 620L1920 607L1920 1081L1874.3 1081C1828.7 1081 1737.3 1081 1645.8 1081C1554.3 1081 1462.7 1081 1371.2 1081C1279.7 1081 1188.3 1081 1097 1081C1005.7 1081 914.3 1081 823 1081C731.7 1081 640.3 1081 548.8 1081C457.3 1081 365.7 1081 274.2 1081C182.7 1081 91.3 1081 45.7 1081L0 1081Z" fill="#001d58"></path><path d="M0 643L45.7 666.2C91.3 689.3 182.7 735.7 274.2 723.5C365.7 711.3 457.3 640.7 548.8 642.8C640.3 645 731.7 720 823 746.3C914.3 772.7 1005.7 750.3 1097 731.8C1188.3 713.3 1279.7 698.7 1371.2 671.7C1462.7 644.7 1554.3 605.3 1645.8 618.3C1737.3 631.3 1828.7 696.7 1874.3 729.3L1920 762L1920 1081L1874.3 1081C1828.7 1081 1737.3 1081 1645.8 1081C1554.3 1081 1462.7 1081 1371.2 1081C1279.7 1081 1188.3 1081 1097 1081C1005.7 1081 914.3 1081 823 1081C731.7 1081 640.3 1081 548.8 1081C457.3 1081 365.7 1081 274.2 1081C182.7 1081 91.3 1081 45.7 1081L0 1081Z" fill="#001c4b"></path><path d="M0 780L45.7 781.3C91.3 782.7 182.7 785.3 274.2 774.3C365.7 763.3 457.3 738.7 548.8 733.7C640.3 728.7 731.7 743.3 823 749.5C914.3 755.7 1005.7 753.3 1097 759.5C1188.3 765.7 1279.7 780.3 1371.2 799.5C1462.7 818.7 1554.3 842.3 1645.8 838.7C1737.3 835 1828.7 804 1874.3 788.5L1920 773L1920 1081L1874.3 1081C1828.7 1081 1737.3 1081 1645.8 1081C1554.3 1081 1462.7 1081 1371.2 1081C1279.7 1081 1188.3 1081 1097 1081C1005.7 1081 914.3 1081 823 1081C731.7 1081 640.3 1081 548.8 1081C457.3 1081 365.7 1081 274.2 1081C182.7 1081 91.3 1081 45.7 1081L0 1081Z" fill="#001a3e"></path><path d="M0 973L45.7 969.3C91.3 965.7 182.7 958.3 274.2 939C365.7 919.7 457.3 888.3 548.8 870.3C640.3 852.3 731.7 847.7 823 850.2C914.3 852.7 1005.7 862.3 1097 867.2C1188.3 872 1279.7 872 1371.2 885C1462.7 898 1554.3 924 1645.8 935.5C1737.3 947 1828.7 944 1874.3 942.5L1920 941L1920 1081L1874.3 1081C1828.7 1081 1737.3 1081 1645.8 1081C1554.3 1081 1462.7 1081 1371.2 1081C1279.7 1081 1188.3 1081 1097 1081C1005.7 1081 914.3 1081 823 1081C731.7 1081 640.3 1081 548.8 1081C457.3 1081 365.7 1081 274.2 1081C182.7 1081 91.3 1081 45.7 1081L0 1081Z" fill="#031730"></path></svg>